<?xml version="1.0" standalone="no"?>
<!DOCTYPE svg PUBLIC "-//W3C//DTD SVG 1.1//EN" "http://www.w3.org/Graphics/SVG/1.1/DTD/svg11.dtd" >
<svg xmlns="http://www.w3.org/2000/svg" xmlns:xlink="http://www.w3.org/1999/xlink" version="1.1">
<metadata></metadata>
<defs>
<font id="fb_duvshanitregular" horiz-adv-x="1038" >
<font-face units-per-em="2048" ascent="1638" descent="-410" />
<missing-glyph horiz-adv-x="430" />
<glyph horiz-adv-x="0" />
<glyph unicode="&#xd;" horiz-adv-x="512" />
<glyph unicode=" "  horiz-adv-x="430" />
<glyph unicode="&#x09;" horiz-adv-x="430" />
<glyph unicode="&#xa0;" horiz-adv-x="430" />
<glyph unicode="!" horiz-adv-x="618" d="M157 113q0 72 34 105.5t97 33.5q64 0 98.5 -36.5t34.5 -102.5q0 -63 -35 -98t-98 -35q-69 0 -100 35t-31 98zM171 823v369h236v-369q0 -128 -86 -461h-74q-76 314 -76 461z" />
<glyph unicode="&#x22;" horiz-adv-x="710" d="M57 803q74 153 74 237q0 61 -31 117q-27 49 -27 96q0 111 105 111q123 0 123 -178q0 -217 -217 -406zM391 803q74 153 74 237q0 47 -30 112q-30 64 -30 101q0 111 107 111q120 0 120 -178q0 -213 -217 -406z" />
<glyph unicode="#" horiz-adv-x="1320" d="M88 303l20 137h242l49 338h-243l20 137h244l41 302h159l-45 -302h279l43 302h158l-43 -302h221l-21 -137h-221l-49 -338h223l-20 -137h-221l-43 -303h-160l47 303h-279l-45 -303h-157l45 303h-244zM508 440h276l49 338h-276z" />
<glyph unicode="$" horiz-adv-x="1087" d="M122 915q0 140 109 224q97 77 256 88v119h102v-123q177 -27 283 -115v-201h-19q-140 117 -264 144v-338q189 -88 278 -174q97 -97 97 -217q0 -142 -105 -230q-104 -89 -270 -102v-129h-102v129q-202 12 -332 106v205h20q145 -122 312 -135v397q-213 106 -288 178 q-77 74 -77 174zM300 926q0 -72 187 -166v297q-187 -7 -187 -131zM589 166q188 20 188 137q0 72 -49 121q-38 38 -139 90v-348z" />
<glyph unicode="%" horiz-adv-x="1712" d="M122 905q0 147 91 244q92 98 239 98t239 -104q86 -100 86 -238q0 -141 -90 -237q-91 -103 -235 -103q-148 0 -242 105q-88 95 -88 235zM292 905q0 -77 37 -127q44 -59 123 -59q77 0 121 59q34 50 34 127q0 79 -34 129q-41 60 -121 60t-123 -60q-37 -50 -37 -129zM386 -27 l756 1274h180l-754 -1274h-182zM933 313q0 144 92 242t238 98q147 0 239 -104q86 -97 86 -236q0 -142 -89 -242q-89 -98 -236 -98q-150 0 -240 100t-90 240zM1105 313q0 -77 37 -129q41 -59 121 -59q82 0 123 59q34 52 34 129q0 187 -157 187q-158 0 -158 -187z" />
<glyph unicode="&#x26;" horiz-adv-x="1521" d="M102 238q0 150 119 269q75 75 248 173q-68 141 -68 256q0 131 76 216q79 91 207 91q110 0 179 -57q75 -62 75 -170q0 -195 -287 -324q122 -224 244 -385q172 212 172 338q0 81 -121 88v39h400v-39q-32 -4 -54.5 -9.5t-36.5 -12.5q-50 -24 -84 -88q-123 -229 -233 -369 q148 -174 285 -174q57 0 97 28q26 17 73 72l26 -22q-20 -85 -108 -149q-86 -64 -174 -64q-137 0 -312 172q-181 -172 -405 -172q-142 0 -227 75q-91 79 -91 218zM276 303q0 -108 66 -181q68 -77 174 -77q132 0 260 123q-128 167 -280 446q-220 -130 -220 -311zM549 1018 q0 -106 74 -266q217 126 217 270q0 34 -10.5 63.5t-29.5 51t-46.5 33.5t-61.5 12q-143 0 -143 -164z" />
<glyph unicode="'" horiz-adv-x="350" d="M57 803q74 153 74 237q0 61 -31 117q-27 49 -27 96q0 111 105 111q123 0 123 -178q0 -217 -217 -406z" />
<glyph unicode="(" horiz-adv-x="620" d="M118 543q0 457 299 887h135q-233 -434 -233 -887q0 -429 233 -869h-135q-299 428 -299 869z" />
<glyph unicode=")" horiz-adv-x="622" d="M69 -326q233 436 233 869q0 450 -233 887h135q299 -430 299 -887q0 -442 -299 -869h-135z" />
<glyph unicode="*" horiz-adv-x="948" d="M96 1065l51 139l260 -102l-8 274h148l-11 -272l265 100l51 -139l-271 -78l179 -235l-125 -88l-162 254l-160 -256l-127 88l184 237z" />
<glyph unicode="+" horiz-adv-x="1064" d="M81 467v160h369v370h161v-370h369v-160h-369v-369h-161v369h-369z" />
<glyph unicode="," horiz-adv-x="417" d="M47 -217q94 167 94 256q0 37 -22 94q-23 46 -23 92q0 48 30 77.5t79 29.5q114 0 114 -166q0 -214 -245 -408z" />
<glyph unicode="-" horiz-adv-x="1064" d="M141 467v160h780v-160h-780z" />
<glyph unicode="." horiz-adv-x="434" d="M83 113q0 69 37 106q31 31 90 31q58 0 90 -33q37 -38 37 -104q0 -63 -36 -98t-91 -35q-61 0 -94 36.5t-33 96.5z" />
<glyph unicode="/" horiz-adv-x="561" d="M6 -31l379 1338h158l-383 -1338h-154z" />
<glyph unicode="0" d="M92 606q0 268 84 426q116 215 344 215q120 0 203 -45q173 -96 211 -377q12 -89 12 -215v-112q-6 -126 -67 -276q-60 -150 -195 -216q-68 -33 -172 -33q-170 0 -275 119q-54 61 -77 121q-11 28 -21.5 62.5t-19.5 76.5q-27 123 -27 254zM295 610q0 -465 225 -465 q127 0 186 168q41 123 41 297q0 463 -227 463q-129 0 -186 -168q-39 -119 -39 -295z" />
<glyph unicode="1" d="M225 776v199q113 6 209 72q106 69 129 174h160v-1221h-199v911q-117 -109 -299 -135z" />
<glyph unicode="2" d="M92 0q0 41 14 102q33 135 125 250q30 38 95 104t165 162q69 66 105.5 101.5t42.5 42.5q71 83 71 156q0 71 -54 109q-55 38 -134 38q-160 0 -344 -117v211q146 88 332 88q187 0 293 -88q108 -89 108 -246q0 -110 -84 -219q-53 -68 -198 -198q-265 -235 -289 -314h606v-182 h-854z" />
<glyph unicode="3" d="M104 39v209q166 -94 348 -94q279 0 279 178q0 211 -289 211h-184v182h122h54q237 0 237 166q0 94 -52 135t-171 41q-157 0 -281 -59v192q158 47 279 47q182 0 295 -80q127 -90 127 -262q0 -72 -43 -137q-47 -74 -127 -109q106 -35 169 -122q66 -89 66 -187 q0 -186 -143 -287q-131 -90 -342 -90q-203 0 -344 66z" />
<glyph unicode="4" d="M69 297v195l502 725h241v-734h158v-186h-158v-297h-190v297h-553zM233 483h389v541z" />
<glyph unicode="5" d="M110 39v207q161 -92 369 -92q247 0 247 211q0 239 -272 239q-179 0 -315 -78l-11 2l39 689h682v-181h-501l-17 -276q66 20 172 20q197 0 311 -108q115 -106 115 -291q0 -189 -138 -298q-139 -110 -349 -110q-175 0 -332 66z" />
<glyph unicode="6" d="M96 559q0 298 117 483q130 205 377 205q138 0 251 -45v-196q-131 63 -270 63q-143 0 -207 -100q-54 -87 -67 -273q112 90 268 90q168 0 273 -112q106 -110 106 -287q0 -171 -124 -292q-125 -122 -300 -122q-221 0 -330 172q-94 149 -94 414zM297 522q0 -122 6 -168 q26 -209 219 -209q95 0 162 62q67 63 67 166q0 241 -221 241q-105 0 -233 -92z" />
<glyph unicode="7" d="M88 1024v193h862v-160q-31 -34 -70 -86.5t-87 -124.5q-180 -270 -269 -531q-29 -85 -49 -163t-31 -152h-202q5 48 18 106t35 130q140 461 422 788h-629z" />
<glyph unicode="8" d="M88 340q0 189 225 317q-172 93 -172 273q0 122 94 213q106 106 279 106q167 0 270 -100q92 -90 92 -203q0 -161 -167 -262q113 -46 177 -134q64 -86 64 -185q0 -183 -137 -293q-122 -103 -297 -103q-190 0 -305 97q-123 100 -123 274zM285 348q0 -209 231 -209 q57 0 101 14t74 39.5t45.5 61t15.5 78.5q0 139 -150 205q-9 4 -47 17t-107 36q-163 -79 -163 -242zM334 942q0 -132 229 -199q127 66 127 185q0 162 -182 162q-40 0 -72.5 -11t-55 -30.5t-34.5 -46.5t-12 -60z" />
<glyph unicode="9" d="M96 842q0 178 116 291q117 114 296 114q214 0 329 -178q107 -161 107 -418q0 -293 -127 -477q-140 -201 -379 -201q-107 0 -240 54v196q127 -73 240 -73q154 0 238 116q71 102 67 246q-116 -80 -280 -80q-168 0 -268 111q-99 112 -99 299zM286 856q0 -252 201 -252 q144 0 256 82q0 61 -12 156q-13 107 -77 168q-61 61 -150 61q-218 0 -218 -215z" />
<glyph unicode=":" horiz-adv-x="530" d="M116 133q0 70 37 107q28 28 96 28q67 0 96 -30q35 -38 35 -105q0 -61 -35.5 -97t-95.5 -36q-67 0 -100 36.5t-33 96.5zM116 846q0 69 37 106q29 29 96 29q66 0 98.5 -34.5t32.5 -100.5q0 -63 -35.5 -98t-95.5 -35q-67 0 -100 36.5t-33 96.5z" />
<glyph unicode=";" horiz-adv-x="522" d="M83 -182q92 164 92 256q0 43 -22 94q-19 42 -19 92q0 107 107 107q114 0 114 -166q0 -218 -247 -408zM112 846q0 69 37 106q29 29 96 29q66 0 98.5 -34.5t32.5 -100.5q0 -64 -35 -98.5t-96 -34.5q-69 0 -101 36.5t-32 96.5z" />
<glyph unicode="&#x3c;" horiz-adv-x="1064" d="M81 469v158l899 463v-170l-717 -373l717 -373v-168z" />
<glyph unicode="=" horiz-adv-x="1064" d="M102 236v159h860v-159h-860zM102 698v162h860v-162h-860z" />
<glyph unicode="&#x3e;" horiz-adv-x="1064" d="M81 6v168l719 373l-719 373v170l899 -463v-158z" />
<glyph unicode="?" horiz-adv-x="942" d="M118 938v215q98 68 268 68q165 0 275 -94q112 -93 112 -238q0 -160 -161 -285l-54 -41q-26 -20 -53 -38.5t-53 -37.5q-63 -51 -80 -114h-66l-10 110q0 73 25 111q10 17 32 38.5t56 49.5l74 59q94 76 94 148q0 33 -11.5 60t-32.5 47t-52 31t-70 11q-169 0 -285 -100h-8z M220 113q0 69 35 104t99 35q63 0 97 -36t34 -103q0 -64 -35 -98.5t-96 -34.5q-69 0 -101.5 36.5t-32.5 96.5z" />
<glyph unicode="@" horiz-adv-x="1697" d="M165 567q0 295 235 494q221 184 525 184q237 0 407 -129q185 -141 185 -375q0 -167 -103 -315q-113 -168 -272 -168q-70 0 -121 39q-52 39 -53 109q-22 -61 -85 -105q-61 -43 -124 -43q-109 0 -176 72q-66 73 -66 182q0 149 116 279q115 129 261 129q135 0 168 -113 q52 89 139 94q29 2 29 -24q0 -5 -2 -15l-39 -119q-90 -282 -90 -340q0 -15 6.5 -29t17 -24.5t25 -17t29.5 -6.5q118 0 202 153q70 130 70 260q0 203 -160 324q-146 113 -356 113q-254 0 -447 -175q-196 -180 -196 -432q0 -244 176 -393q164 -137 414 -137q86 0 188 24 q133 33 266 121q16 11 27 11q27 0 27 -27q0 -22 -19 -35q-116 -80 -256 -123q-117 -37 -260 -37q-271 0 -471 160q-217 169 -217 434zM675 451q0 -127 110 -127q98 0 175 170q63 142 63 258q0 100 -100 100q-102 0 -181 -156q-67 -133 -67 -245z" />
<glyph unicode="[" horiz-adv-x="669" d="M163 -385v1876h446v-162h-251v-1552h251v-162h-446z" />
<glyph unicode="\" horiz-adv-x="800" d="M16 1153q0 24 31 8l82 -45q21 -11 32 -35l576 -1218q6 -14 2 -21q-6 -8 -16 -4l-99 45q-22 10 -30 29l-574 1227q-4 7 -4 14z" />
<glyph unicode="]" horiz-adv-x="669" d="M59 -223h252v1552h-252v162h446v-1876h-446v162z" />
<glyph unicode="^" horiz-adv-x="960" d="M65 467l366 758q17 35 47 35t47 -35l367 -758h-137l-275 582l-278 -582h-137z" />
<glyph unicode="_" horiz-adv-x="1024" d="M0 -139h1024v-90h-1024v90z" />
<glyph unicode="{" horiz-adv-x="702" d="M45 481v142q77 5 130 52q55 48 44 113l-51 357q-2 13 -3 26t-1 27q0 135 100 217q91 76 227 76h152v-162h-131q-78 0 -119 -44.5t-31 -125.5l41 -342q23 -188 -204 -262v-4q229 -82 204 -272l-41 -332q-1 -10 -1.5 -18.5t-0.5 -16.5q0 -135 152 -135h131v-162h-152 q-130 0 -225 80q-102 84 -102 217q0 24 4 47l51 356q10 70 -41 118t-133 48z" />
<glyph unicode="|" horiz-adv-x="475" d="M167 -385v1872h141v-1872h-141z" />
<glyph unicode="}" horiz-adv-x="696" d="M59 -223h131q150 0 150 135q0 8 -0.5 16.5t-1.5 18.5l-41 332q-22 190 206 272v4q-229 73 -206 262l41 342q20 170 -148 170h-131v162h152q136 0 227 -76q100 -82 100 -217q0 -14 -1 -27t-3 -26l-51 -357q-11 -65 44 -113q53 -47 130 -52v-142q-82 0 -133 -48t-41 -118 l51 -356q4 -23 4 -47q0 -133 -102 -217q-95 -80 -225 -80h-152v162z" />
<glyph unicode="~" horiz-adv-x="1107" d="M28 295q13 98 73 190q74 113 197 113q83 0 272 -73q190 -72 260 -72q74 0 125 61q38 44 70 127q17 41 37 41q16 0 16 -27q0 -4 -2 -14q-40 -172 -119 -246q-70 -65 -161 -65q-89 0 -279 75q-189 76 -250 76q-128 0 -192 -186q-13 -37 -33 -37t-14 37z" />
<glyph unicode="&#xa2;" horiz-adv-x="874" d="M110 387q0 216 133 334q103 88 233 88q10 0 23 -0.5t30 -1.5l119 328h62l-123 -344q157 -72 157 -175q0 -71 -79 -71q-49 0 -74 33q-12 17 -21 59q-10 55 -16 65l-195 -538q79 -53 140 -53q110 0 174 73q25 33 69 125l27 -10q-79 -319 -330 -319q-67 0 -137 30l-121 -334 h-61l133 365q-143 135 -143 346zM247 457q0 -117 67 -244l193 526q-27 11 -51 11q-109 0 -164 -97q-45 -80 -45 -196z" />
<glyph unicode="&#xa3;" horiz-adv-x="874" d="M51 90q0 30 10.5 54.5t29.5 42t45 27t57 9.5q27 0 71 -6q1 6 2 15t2 22v29q0 74 -18 280h-166v82h166q-12 127 -12 170q0 225 159 324q72 45 158 45q82 0 145 -45q72 -50 72 -129q0 -14 -5.5 -26.5t-15 -23t-21.5 -16.5t-25 -6q-33 0 -54 33q-9 12 -14 69q-4 51 -28.5 74 t-73.5 23q-156 0 -156 -240q0 -29 2.5 -68.5t7.5 -91.5l8 -92h221v-82h-221q1 -20 1.5 -34t0.5 -23q0 -148 -53 -307q162 -54 191 -60q43 -10 88 -10q141 0 180 137l31 -8q-15 -113 -72 -188q-68 -90 -174 -90q-72 0 -150 45q-15 9 -47 32t-82 60q-68 -137 -159 -137 q-46 0 -73.5 31t-27.5 79zM100 96q0 -67 56 -67q70 0 98 118q-38 23 -72 23q-82 0 -82 -74z" />
<glyph unicode="&#xa7;" horiz-adv-x="874" d="M133 430q0 175 189 291q-105 117 -105 221q0 101 69 172q70 70 173 70q86 0 151 -54q66 -53 66 -135q0 -77 -68 -77q-67 0 -67 67q0 11 6 40q6 28 6 42q0 80 -94 80q-62 0 -105 -43t-43 -107q0 -55 23 -90q38 -60 129 -125q125 -92 184 -157q94 -104 94 -213 q0 -179 -188 -293q104 -116 104 -217q0 -103 -69 -173q-68 -71 -172 -71q-83 0 -150 56q-65 56 -65 136q0 15 5.5 28.5t14.5 24t21 17t26 6.5q64 0 64 -76q0 -14 -8 -46q-7 -29 -7 -46q0 -32 37 -51q31 -16 66 -16q58 0 104 43q47 44 47 98q0 109 -176 240q-122 91 -174 153 q-88 100 -88 205zM221 504q0 -80 66 -158q20 -23 53.5 -51.5t79.5 -63.5q31 -23 56.5 -44.5t47.5 -41.5q131 78 131 187q0 119 -192 268q-37 29 -65 52t-48 42q-129 -78 -129 -190z" />
<glyph unicode="&#xa9;" horiz-adv-x="1335" d="M61 580q0 163 84 307q84 146 226 222q143 77 297 77q161 0 304 -81q144 -81 222 -220q80 -146 80 -305q0 -163 -82 -306q-83 -143 -226 -222q-142 -79 -298 -79q-163 0 -306 82q-143 83 -222 224q-79 142 -79 301zM115 580q0 -148 74 -279q76 -132 205 -203 q131 -71 274 -71q148 0 279 74q129 74 203 205q73 130 73 274q0 150 -76 280q-77 132 -208 203q-132 72 -271 72q-148 0 -278 -75t-202 -202q-73 -133 -73 -278zM276 575q0 175 127 287q121 109 299 109q60 0 158 -33q21 -6 31 -6q27 0 43 37h35l16 -238h-33 q-62 201 -260 201q-138 0 -215 -107q-59 -85 -59 -225q0 -354 282 -354q169 0 269 139l30 -16q-119 -174 -327 -174q-165 0 -281 107q-115 108 -115 273z" />
<glyph unicode="&#xab;" horiz-adv-x="1024" d="M63 465l388 469h57l-244 -469l244 -473h-57zM508 465l393 469h60l-244 -469l244 -473h-60z" />
<glyph unicode="&#xad;" horiz-adv-x="1064" d="M141 467v160h780v-160h-780z" />
<glyph unicode="&#xb6;" horiz-adv-x="792" d="M-12 840q0 189 170 278q84 41 215 41h424v-47h-115v-1491h-61v1491h-160v-1491h-62v893q-137 6 -209 31q-108 34 -159 125q-43 74 -43 170z" />
<glyph unicode="&#xb7;" horiz-adv-x="512" d="M145 678q0 48 31.5 79t79.5 31t79.5 -31t31.5 -79t-31.5 -79.5t-79.5 -31.5q-45 0 -78 33t-33 78z" />
<glyph unicode="&#xbb;" horiz-adv-x="1024" d="M63 -8l244 471l-244 471h60l393 -471l-393 -471h-60zM516 -8l244 471l-244 471h57l388 -471l-388 -471h-57z" />
<glyph unicode="&#xbc;" horiz-adv-x="1312" d="M114 1108l176 76h28v-506q0 -51 7 -64q10 -18 80 -18v-29h-277v29q74 0 82 18q4 9 4 64v319q0 87 -12 101q-5 4 -17 4q-17 0 -57 -17zM228 -47l799 1231h76l-799 -1231h-76zM798 123v61l319 398h74v-389h92v-70h-92v-158h-100v158h-293zM867 193h224v268z" />
<glyph unicode="&#xbd;" horiz-adv-x="1312" d="M114 1108l176 76h28v-506q0 -51 7 -64q10 -18 80 -18v-29h-277v29q74 0 82 18q4 9 4 64v319q0 87 -12 101q-5 4 -17 4q-17 0 -57 -17zM208 -47l799 1231h75l-798 -1231h-76zM802 -8q323 251 323 389q0 55 -35.5 89t-89.5 34q-103 0 -141 -101h-39q27 179 207 179 q78 0 137 -41q68 -45 68 -119q0 -134 -293 -373h160q110 0 139 47h39l-53 -131h-422v27z" />
<glyph unicode="&#xbe;" horiz-adv-x="1312" d="M36 608q0 39 49 39q23 0 71 -21q49 -20 76 -20q47 0 82 33t35 80q0 145 -198 141v25q59 0 107 36q48 37 48 97q0 94 -104 94q-73 0 -125 -76l-33 15q66 133 197 133q63 0 112 -31q58 -37 58 -96q0 -58 -90 -131q124 -45 124 -156q0 -107 -92 -166q-79 -49 -192 -49 q-125 0 -125 53zM218 -47l799 1231h74l-797 -1231h-76zM798 123v61l319 398h74v-389h92v-70h-92v-158h-100v158h-293zM869 193h222v268z" />
<glyph unicode="&#xd7;" horiz-adv-x="987" d="M141 281l301 301l-301 301l52 49l299 -299l301 299l49 -47l-301 -301l303 -303l-49 -50l-303 304l-302 -304z" />
<glyph unicode="&#xf7;" horiz-adv-x="1124" d="M22 641v82h1079v-82h-1079zM472 367q0 18 7 34t19 28t28 19t34 7q39 0 63.5 -26t24.5 -62q0 -37 -25.5 -62.5t-62.5 -25.5q-18 0 -34 7t-28 19t-19 28t-7 34zM472 987q0 37 25.5 62.5t62.5 25.5q39 0 63.5 -24.5t24.5 -63.5q0 -18 -7 -33.5t-19 -27t-28 -18.5t-34 -7 t-34 7t-28 18.5t-19 27t-7 33.5z" />
<glyph unicode="&#x2000;" horiz-adv-x="745" />
<glyph unicode="&#x2001;" horiz-adv-x="1491" />
<glyph unicode="&#x2002;" horiz-adv-x="745" />
<glyph unicode="&#x2003;" horiz-adv-x="1491" />
<glyph unicode="&#x2004;" horiz-adv-x="497" />
<glyph unicode="&#x2005;" horiz-adv-x="372" />
<glyph unicode="&#x2006;" horiz-adv-x="248" />
<glyph unicode="&#x2007;" horiz-adv-x="248" />
<glyph unicode="&#x2008;" horiz-adv-x="186" />
<glyph unicode="&#x2009;" horiz-adv-x="298" />
<glyph unicode="&#x200a;" horiz-adv-x="82" />
<glyph unicode="&#x2010;" horiz-adv-x="1064" d="M141 467v160h780v-160h-780z" />
<glyph unicode="&#x2011;" horiz-adv-x="1064" d="M141 467v160h780v-160h-780z" />
<glyph unicode="&#x2012;" horiz-adv-x="1064" d="M141 467v160h780v-160h-780z" />
<glyph unicode="&#x2013;" horiz-adv-x="1064" d="M141 467v160h780v-160h-780z" />
<glyph unicode="&#x2014;" horiz-adv-x="1466" d="M141 467v160h1179v-160h-1179z" />
<glyph unicode="&#x2018;" horiz-adv-x="350" d="M57 958q0 217 217 406l27 -23q-74 -153 -74 -237q0 -61 31 -117q27 -50 27 -96q0 -111 -105 -111q-123 0 -123 178z" />
<glyph unicode="&#x2019;" horiz-adv-x="350" d="M57 803q74 153 74 237q0 61 -31 117q-27 49 -27 96q0 111 105 111q123 0 123 -178q0 -217 -217 -406z" />
<glyph unicode="&#x201c;" horiz-adv-x="710" d="M57 958q0 213 217 406l24 -23q-74 -153 -74 -237q0 -48 30 -112q30 -65 30 -101q0 -111 -107 -111q-120 0 -120 178zM388 958q0 217 217 406l27 -23q-74 -153 -74 -237q0 -61 31 -117q27 -50 27 -96q0 -111 -105 -111q-123 0 -123 178z" />
<glyph unicode="&#x201d;" horiz-adv-x="710" d="M57 803q74 153 74 237q0 61 -31 117q-27 49 -27 96q0 111 105 111q123 0 123 -178q0 -217 -217 -406zM391 803q74 153 74 237q0 47 -30 112q-30 64 -30 101q0 111 107 111q120 0 120 -178q0 -213 -217 -406z" />
<glyph unicode="&#x2022;" horiz-adv-x="612" d="M96 580q0 90 61 151q62 62 154 62q89 0 151 -62t62 -151q0 -92 -63 -153q-62 -62 -150 -62q-89 0 -153 62q-62 62 -62 153z" />
<glyph unicode="&#x202f;" horiz-adv-x="298" />
<glyph unicode="&#x2039;" horiz-adv-x="681" d="M118 465l387 469h57l-244 -469l244 -473h-57z" />
<glyph unicode="&#x203a;" horiz-adv-x="681" d="M114 -8l243 471l-243 471h57l395 -471l-395 -471h-57z" />
<glyph unicode="&#x205f;" horiz-adv-x="372" />
<glyph unicode="&#x25fc;" horiz-adv-x="500" d="M0 0z" />
</font>
</defs>
</svg>
